<?xml version="1.0" encoding="UTF-8" standalone="no"?>
<!-- Created with Inkscape (http://www.inkscape.org/) -->

<svg
   xmlns:dc="http://purl.org/dc/elements/1.1/"
   xmlns:cc="http://creativecommons.org/ns#"
   xmlns:rdf="http://www.w3.org/1999/02/22-rdf-syntax-ns#"
   xmlns:svg="http://www.w3.org/2000/svg"
   xmlns="http://www.w3.org/2000/svg"
   xmlns:sodipodi="http://sodipodi.sourceforge.net/DTD/sodipodi-0.dtd"
   xmlns:inkscape="http://www.inkscape.org/namespaces/inkscape"
   width="54.044453mm"
   height="18.389601mm"
   viewBox="0 0 54.044453 18.389601"
   version="1.1"
   id="svg8"
   inkscape:version="0.92.2 (unknown)"
   sodipodi:docname="logo.svg">
  <defs
     id="defs2" />
  <sodipodi:namedview
     id="base"
     pagecolor="#ffffff"
     bordercolor="#666666"
     borderopacity="1.0"
     inkscape:pageopacity="0.0"
     inkscape:pageshadow="2"
     inkscape:zoom="2"
     inkscape:cx="57.87274"
     inkscape:cy="10.315602"
     inkscape:document-units="px"
     inkscape:current-layer="text817"
     showgrid="false"
     inkscape:snap-page="true"
     inkscape:snap-bbox="true"
     fit-margin-top="0"
     fit-margin-left="0"
     fit-margin-right="0"
     fit-margin-bottom="0"
     inkscape:window-width="1920"
     inkscape:window-height="1052"
     inkscape:window-x="1366"
     inkscape:window-y="0"
     inkscape:window-maximized="1" />
  <metadata
     id="metadata5">
    <rdf:RDF>
      <cc:Work
         rdf:about="">
        <dc:format>image/svg+xml</dc:format>
        <dc:type
           rdf:resource="http://purl.org/dc/dcmitype/StillImage" />
        <dc:title></dc:title>
      </cc:Work>
    </rdf:RDF>
  </metadata>
  <g
     inkscape:label="Layer 1"
     inkscape:groupmode="layer"
     id="layer1"
     transform="translate(0,0.2032)">
    <g
       aria-label="UNO"
       style="font-style:normal;font-weight:normal;font-size:10.58333302px;line-height:125%;font-family:sans-serif;letter-spacing:0px;word-spacing:0px;fill:#000000;fill-opacity:1;stroke:none;stroke-width:0.26458332px;stroke-linecap:butt;stroke-linejoin:miter;stroke-opacity:1"
       id="text817"
       transform="translate(-1.956615,-1.606416)">
      <path
         d="m 8.7638149,18.649816 q 1.2954001,0 2.3114001,-0.4445 1.0287,-0.4572 1.7399,-1.2573 0.7112,-0.8001 1.0795,-1.8796 0.381,-1.0922 0.381,-2.3495 v -11.1125 h 1.2954 v 11.1125 q 0,1.4859 -0.4699,2.7813 -0.4699,1.2827 -1.3589,2.2479 -0.8763,0.9525 -2.1463,1.4986 -1.2573,0.5461 -2.8321001,0.5461 -1.5747999,0 -2.8447999,-0.5461 -1.2573,-0.5461 -2.1463,-1.4986 -0.8763,-0.9652 -1.3462,-2.2479 -0.4699,-1.2954 -0.4699,-2.7813 v -11.1125 h 1.3081 v 11.0998 q 0,1.2573 0.3683,2.3495 0.381,1.0795 1.0795,1.8796 0.7112,0.8001 1.7272,1.2573 1.0287,0.4572 2.3240999,0.4572 z"
         style="font-style:normal;font-variant:normal;font-weight:300;font-stretch:normal;font-size:25.39999962px;font-family:Lato;-inkscape-font-specification:'Lato Light';stroke-width:0.26458332px"
         id="path819"
         inkscape:connector-curvature="0" />
      <path
         d="m 21.409839,1.606416 q 0.1778,0 0.2794,0.0508 0.1016,0.0381 0.2159,0.1905 l 11.6332,15.5702 q -0.0381,-0.381 -0.0381,-0.7366 v -15.0749 h 1.143 v 17.9705 h -0.6223 q -0.2921,0 -0.4699,-0.254 l -11.684,-15.5956 q 0.0381,0.381 0.0381,0.7239 v 15.1257 h -1.1303 v -17.9705 z"
         style="font-style:normal;font-variant:normal;font-weight:300;font-stretch:normal;font-size:25.39999962px;font-family:Lato;-inkscape-font-specification:'Lato Light';stroke-width:0.26458332px"
         id="path821"
         inkscape:connector-curvature="0" />
      <path
         d="m 56.001066,10.585316 q 0,2.0828 -0.6223,3.7846 -0.6223,1.6891 -1.7526,2.8956 -1.1303,1.1938 -2.7051,1.8542 -1.5748,0.6477 -3.492499,0.6477 -1.8923,0 -3.4671,-0.6477 -1.5748,-0.6604 -2.7051,-1.8542 -1.1303,-1.2065 -1.7653,-2.8956 -0.6223,-1.7018 -0.6223,-3.7846 0,-2.0701001 0.6223,-3.7592001 0.635,-1.7017999 1.7653,-2.8955999 1.1303,-1.2065 2.7051,-1.8669 1.5748,-0.6604 3.4671,-0.6604 1.917699,0 3.492499,0.6604 1.5748,0.6477 2.7051,1.8542 1.1303,1.2065 1.7526,2.9082999 0.6223,1.6891 0.6223,3.7592001 z m -1.3462,0 q 0,-1.8796001 -0.5207,-3.3782001 -0.5207,-1.4986 -1.4732,-2.5399999 -0.9398,-1.0414 -2.2733,-1.5875 -1.3335,-0.5588 -2.959099,-0.5588 -1.6002,0 -2.9337,0.5588 -1.3208,0.5461 -2.286,1.5875 -0.9525,1.0413999 -1.4859,2.5399999 -0.5207,1.4986 -0.5207,3.3782001 0,1.8923 0.5207,3.3909 0.5334,1.4859 1.4859,2.5273 0.9652,1.0414 2.286,1.5875 1.3335,0.5461 2.9337,0.5461 1.625599,0 2.959099,-0.5461 1.3335,-0.5461 2.2733,-1.5875 0.9525,-1.0414 1.4732,-2.5273 0.5207,-1.4986 0.5207,-3.3909 z"
         style="font-style:normal;font-variant:normal;font-weight:300;font-stretch:normal;font-size:25.39999962px;font-family:Lato;-inkscape-font-specification:'Lato Light';stroke-width:0.26458332px"
         id="path823"
         inkscape:connector-curvature="0" />
    </g>
  </g>
</svg>
